<svg xmlns="http://www.w3.org/2000/svg" viewBox="0 0 800 800">
  <rect x="40" y="40" width="320" height="240" rx="40" fill="#eff1f5"/>
  <path d="M440 40h280a40 40 0 0 1 40 40v280a40 40 0 0 1-40 40H520a40 40 0 0 0-40 40v120a40 40 0 0 1-40 40H240a40 40 0 0 1-40-40V360a40 40 0 0 1 40-40h120a40 40 0 0 0 40-40V80a40 40 0 0 1 40-40Z" fill="#dce0e8"/>
  <path d="M80 320h40a40 40 0 0 1 40 40v240a40 40 0 0 0 40 40h240a40 40 0 0 1 40 40v40a40 40 0 0 1-40 40H80a40 40 0 0 1-40-40V360a40 40 0 0 1 40-40Z" fill="#40a02b"/>
  <rect x="520" y="440" width="240" height="320" rx="40" fill="#eff1f5"/>
</svg>
